<svg width="80" height="80" viewBox="0 0 80 80" fill="none" xmlns="http://www.w3.org/2000/svg">
<path d="M59.75 5.75C54.85 4.58333 48.2667 4 40 4C31.7 4 25.1167 4.58333 20.25 5.75C15.0167 7.01667 10.9333 9.1 7.99999 12C5.09999 14.9333 3.01666 19.0167 1.74999 24.25C0.716655 28.65 0.149988 34.4 0.0499878 41.5C0.0499878 41.8333 0.0499878 42.1667 0.0499878 42.5C0.149988 49.6 0.716655 55.35 1.74999 59.75C3.01666 65.0167 5.09999 69.1 7.99999 72C10.9333 74.9333 15.0167 77.0167 20.25 78.25C25.1167 79.4167 31.7 80 40 80C48.2667 80 54.85 79.4167 59.75 78.25C65.0167 77.0167 69.1 74.9333 72 72C74.9333 69.1 77.0167 65.0167 78.25 59.75C79.2833 55.4167 79.8667 49.75 80 42.75C80 42.65 80 42.5667 80 42.5V41.25C79.8667 34.25 79.2833 28.5833 78.25 24.25C77.0167 19.0167 74.9333 14.9333 72 12C69.1 9.1 65.0167 7.01667 59.75 5.75Z" fill="url(#paint0_linear_1_1405)"/>
<path d="M40 4C48.2667 4 54.85 4.58333 59.75 5.75C65.0167 7.01667 69.1 9.1 72 12C74.9333 14.9333 77.0167 19.0167 78.25 24.25C79.2833 28.5833 79.8667 34.25 80 41.25C80 40.85 80 40.4333 80 40C80 31.7333 79.4167 25.15 78.25 20.25C77.0167 15.0167 74.9333 10.9333 72 8C69.1 5.1 65.0167 3.01667 59.75 1.75C54.85 0.583333 48.2667 0 40 0C31.7 0 25.1167 0.583333 20.25 1.75C15.0167 3.01667 10.9333 5.1 8 8C5.1 10.9333 3.01667 15.0167 1.75 20.25C0.583333 25.15 0 31.7333 0 40C0 40.5 0.0166659 41 0.0499992 41.5C0.149999 34.4 0.716667 28.65 1.75 24.25C3.01667 19.0167 5.1 14.9333 8 12C10.9333 9.1 15.0167 7.01667 20.25 5.75C25.1167 4.58333 31.7 4 40 4Z" fill="url(#paint1_linear_1_1405)"/>
<path d="M35.0544 29.4375C34.8502 32.2495 33.7326 34.6709 31.7017 36.7017C29.4425 38.9489 26.7207 40.0725 23.5362 40.0725C20.3397 40.0725 17.6179 38.9489 15.3707 36.7017C13.4961 34.8271 12.4026 32.616 12.0901 30.0684L12.0361 29.4555L12 28.5362C12 28.0195 12.03 27.5148 12.0901 27.0221C12.4026 24.4745 13.4961 22.2634 15.3707 20.3888C17.6179 18.1296 20.3397 17 23.5362 17C26.7207 17 29.4425 18.1296 31.7017 20.3888C33.9489 22.6359 35.0725 25.3518 35.0725 28.5362L35.0544 29.4375ZM32.5669 28.5362C32.5669 26.0487 31.6957 23.9277 29.9533 22.1733C28.1748 20.3948 26.0357 19.5055 23.5362 19.5055C21.0487 19.5055 18.9217 20.3948 17.1552 22.1733C15.3888 23.9277 14.5055 26.0487 14.5055 28.5362C14.5055 31.0478 15.3888 33.1868 17.1552 34.9533C18.9217 36.6957 21.0487 37.5669 23.5362 37.5669C26.0357 37.5669 28.1748 36.6957 29.9533 34.9533C31.6957 33.1868 32.5669 31.0478 32.5669 28.5362Z" fill="white"/>
<path d="M32.567 28.5362C32.567 31.0477 31.6957 33.1867 29.9533 34.9532C28.1748 36.6957 26.0358 37.5669 23.5363 37.5669C21.0488 37.5669 18.9218 36.6957 17.1553 34.9532C15.3888 33.1867 14.5056 31.0477 14.5056 28.5362C14.5056 26.0487 15.3888 23.9277 17.1553 22.1732C18.9218 20.3947 21.0488 19.5055 23.5363 19.5055C26.0358 19.5055 28.1748 20.3947 29.9533 22.1732C31.6957 23.9277 32.567 26.0487 32.567 28.5362ZM28.5293 23.1827C27.616 22.2694 26.6246 21.7166 25.5551 21.5243C24.4616 21.308 23.6084 21.5063 22.9955 22.1192L22.9775 22.1372C22.0642 23.0505 21.6136 24.15 21.6256 25.4358C21.6136 26.7337 22.0642 27.8392 22.9775 28.7525C23.9028 29.6778 25.0143 30.1344 26.3122 30.1224C27.586 30.1224 28.6795 29.6658 29.5928 28.7525L29.6108 28.7345C30.2116 28.1096 30.4219 27.2684 30.2417 26.2109C30.0254 25.1174 29.4546 24.108 28.5293 23.1827ZM18.6874 34.1241C19.2642 34.7009 19.8891 35.0554 20.5621 35.1876C21.247 35.3318 21.7938 35.2056 22.2024 34.809C22.7792 34.2322 23.0676 33.5292 23.0676 32.7001C23.0676 31.8829 22.7792 31.1799 22.2024 30.5911C21.6135 30.0143 20.9106 29.7259 20.0934 29.7259C19.2763 29.7259 18.5793 30.0143 18.0025 30.5911L17.9844 30.6091C17.5999 31.0057 17.4737 31.5464 17.6059 32.2314C17.7381 32.9164 18.0986 33.5473 18.6874 34.1241Z" fill="black"/>
<path d="M18.6874 34.1241C18.0986 33.5473 17.7381 32.9164 17.6059 32.2315C17.4737 31.5465 17.5999 31.0057 17.9844 30.6092L18.0025 30.5912C18.5793 30.0143 19.2763 29.7259 20.0934 29.7259C20.9106 29.7259 21.6135 30.0143 22.2024 30.5912C22.7792 31.18 23.0676 31.883 23.0676 32.7001C23.0676 33.5293 22.7792 34.2323 22.2024 34.8091C21.7938 35.2056 21.247 35.3318 20.5621 35.1876C19.8891 35.0554 19.2642 34.7009 18.6874 34.1241ZM28.5293 23.1827C29.4546 24.108 30.0254 25.1175 30.2417 26.211C30.4219 27.2685 30.2116 28.1097 29.6108 28.7345L29.5928 28.7526C28.6795 29.6659 27.5859 30.1225 26.3122 30.1225C25.0143 30.1345 23.9028 29.6779 22.9775 28.7526C22.0642 27.8393 21.6135 26.7337 21.6256 25.4359C21.6135 24.1501 22.0642 23.0505 22.9775 22.1373L22.9955 22.1192C23.6083 21.5064 24.4615 21.3081 25.5551 21.5244C26.6246 21.7167 27.616 22.2694 28.5293 23.1827Z" fill="white"/>
<path d="M35.0544 29.4375L35.0725 30.3388C35.0725 33.5353 33.9489 36.2571 31.7017 38.5043C29.4425 40.7514 26.7207 41.875 23.5362 41.875C20.3397 41.875 17.6179 40.7514 15.3707 38.5043C13.4961 36.6296 12.4026 34.4185 12.0901 31.8709C12.03 31.3782 12 30.8675 12 30.3388L12.0361 29.4555L12.0901 30.0684C12.4026 32.616 13.4961 34.8271 15.3707 36.7017C17.6179 38.9489 20.3397 40.0725 23.5362 40.0725C26.7207 40.0725 29.4425 38.9489 31.7017 36.7017C33.7326 34.6709 34.8502 32.2495 35.0544 29.4375Z" fill="black" fill-opacity="0.101961"/>
<path d="M45.6653 29.4375C45.8696 32.2495 46.9872 34.6709 49.0181 36.7017C51.2772 38.9489 53.9991 40.0725 57.1836 40.0725C60.3801 40.0725 63.1019 38.9489 65.349 36.7017C67.2237 34.8271 68.3172 32.616 68.6297 30.0684L68.6837 29.4555L68.7198 28.5362C68.7198 28.0195 68.6897 27.5148 68.6297 27.0221C68.3172 24.4745 67.2237 22.2634 65.349 20.3888C63.1019 18.1296 60.3801 17 57.1836 17C53.9991 17 51.2772 18.1296 49.0181 20.3888C46.7709 22.6359 45.6473 25.3518 45.6473 28.5362L45.6653 29.4375ZM48.1529 28.5362C48.1529 26.0487 49.0241 23.9277 50.7665 22.1733C52.545 20.3948 54.684 19.5055 57.1836 19.5055C59.6711 19.5055 61.7981 20.3948 63.5645 22.1733C65.331 23.9277 66.2143 26.0487 66.2143 28.5362C66.2143 31.0478 65.331 33.1868 63.5645 34.9533C61.7981 36.6957 59.6711 37.5669 57.1836 37.5669C54.684 37.5669 52.545 36.6957 50.7665 34.9533C49.0241 33.1868 48.1529 31.0478 48.1529 28.5362Z" fill="white"/>
<path d="M48.1528 28.5362C48.1528 31.0477 49.0241 33.1867 50.7665 34.9532C52.545 36.6957 54.684 37.5669 57.1835 37.5669C59.671 37.5669 61.798 36.6957 63.5645 34.9532C65.331 33.1867 66.2142 31.0477 66.2142 28.5362C66.2142 26.0487 65.331 23.9277 63.5645 22.1732C61.798 20.3947 59.671 19.5055 57.1835 19.5055C54.684 19.5055 52.545 20.3947 50.7665 22.1732C49.0241 23.9277 48.1528 26.0487 48.1528 28.5362ZM52.1905 23.1827C53.1038 22.2694 54.0952 21.7166 55.1647 21.5243C56.2582 21.308 57.1114 21.5063 57.7243 22.1192L57.7423 22.1372C58.6556 23.0505 59.1062 24.15 59.0942 25.4358C59.1062 26.7337 58.6556 27.8392 57.7423 28.7525C56.817 29.6778 55.7054 30.1344 54.4076 30.1224C53.1338 30.1224 52.0403 29.6658 51.127 28.7525L51.109 28.7345C50.5081 28.1096 50.2979 27.2684 50.4781 26.2109C50.6944 25.1174 51.2652 24.108 52.1905 23.1827ZM62.0324 34.1241C61.4555 34.7009 60.8307 35.0554 60.1577 35.1876C59.4728 35.3318 58.926 35.2056 58.5174 34.809C57.9406 34.2322 57.6522 33.5292 57.6522 32.7001C57.6522 31.8829 57.9406 31.1799 58.5174 30.5911C59.1062 30.0143 59.8092 29.7259 60.6264 29.7259C61.4435 29.7259 62.1405 30.0143 62.7173 30.5911L62.7353 30.6091C63.1199 31.0057 63.2461 31.5464 63.1139 32.2314C62.9817 32.9164 62.6212 33.5473 62.0324 34.1241Z" fill="black"/>
<path d="M62.0324 34.1241C62.6212 33.5473 62.9817 32.9164 63.1139 32.2315C63.2461 31.5465 63.1199 31.0057 62.7354 30.6092L62.7173 30.5912C62.1405 30.0143 61.4435 29.7259 60.6264 29.7259C59.8092 29.7259 59.1063 30.0143 58.5174 30.5912C57.9406 31.18 57.6522 31.883 57.6522 32.7001C57.6522 33.5293 57.9406 34.2323 58.5174 34.8091C58.926 35.2056 59.4728 35.3318 60.1577 35.1876C60.8307 35.0554 61.4556 34.7009 62.0324 34.1241ZM52.1905 23.1827C51.2652 24.108 50.6944 25.1175 50.4781 26.211C50.2979 27.2685 50.5081 28.1097 51.109 28.7345L51.127 28.7526C52.0403 29.6659 53.1338 30.1225 54.4076 30.1225C55.7055 30.1345 56.817 29.6779 57.7423 28.7526C58.6556 27.8393 59.1062 26.7337 59.0942 25.4359C59.1062 24.1501 58.6556 23.0505 57.7423 22.1373L57.7243 22.1192C57.1114 21.5064 56.2582 21.3081 55.1647 21.5244C54.0952 21.7167 53.1038 22.2694 52.1905 23.1827Z" fill="white"/>
<path d="M45.6653 29.4375L45.6473 30.3388C45.6473 33.5353 46.7709 36.2571 49.0181 38.5043C51.2772 40.7514 53.9991 41.875 57.1836 41.875C60.3801 41.875 63.1019 40.7514 65.349 38.5043C67.2237 36.6296 68.3172 34.4185 68.6297 31.8709C68.6897 31.3782 68.7198 30.8675 68.7198 30.3388L68.6837 29.4555L68.6297 30.0684C68.3172 32.616 67.2237 34.8271 65.349 36.7017C63.1019 38.9489 60.3801 40.0725 57.1836 40.0725C53.9991 40.0725 51.2772 38.9489 49.0181 36.7017C46.9872 34.6709 45.8696 32.2495 45.6653 29.4375Z" fill="black" fill-opacity="0.101961"/>
<path d="M27.402 51C27.4338 52.2545 28.1484 53.1756 29.5458 53.7631L31.1418 56.9313C31.2212 57.1059 31.372 57.233 31.5944 57.3124C31.8326 57.3918 32.0549 57.3918 32.2613 57.3124L32.7377 56.9313L33.8811 54.6207C37.7241 55.0812 41.583 55.0653 45.4578 54.573L46.6488 56.9313L47.0776 57.3124C47.3158 57.3918 47.5381 57.3918 47.7445 57.3124L48.2209 56.9313L49.8407 53.6917C51.1905 53.1676 51.8813 52.2704 51.9131 51H53.7949C54.3348 51 54.8192 51.1667 55.2479 51.5002C55.6608 51.7702 55.9625 52.1434 56.1531 52.6198C56.3595 53.1279 56.3992 53.6282 56.2722 54.1205C55.51 57.0583 54.0172 59.6706 51.794 61.9573L50.198 63.4104L48.8403 64.4347C46.1565 63.1484 43.0996 62.5052 39.6695 62.5052C36.2552 62.5052 33.1983 63.1642 30.4986 64.4823L29.1171 63.458L27.4496 61.9573C25.274 59.6229 23.8051 57.0107 23.0429 54.1205C22.9476 53.6282 23.0111 53.1279 23.2334 52.6198C23.3605 52.1434 23.6543 51.7702 24.1148 51.5002C24.5118 51.1667 24.9723 51 25.4964 51H27.402Z" fill="#33291E"/>
<path d="M27.4019 51H51.913C51.8812 52.2704 51.1905 53.1676 49.8406 53.6917L48.2209 56.9313L47.7445 57.3124C47.538 57.3918 47.3157 57.3918 47.0775 57.3124L46.6487 56.9313L45.4577 54.573C41.5829 55.0653 37.724 55.0812 33.881 54.6207L32.7377 56.9313L32.2613 57.3124C32.0548 57.3918 31.8325 57.3918 31.5943 57.3124C31.372 57.233 31.2211 57.1059 31.1417 56.9313L29.5457 53.7631C28.1483 53.1756 27.4337 52.2545 27.4019 51Z" fill="white"/>
<path d="M30.4986 64.4824C33.1982 63.1643 36.2552 62.5053 39.6694 62.5053C43.0995 62.5053 46.1565 63.1485 48.8402 64.4348C46.1406 66.2769 43.0678 67.1979 39.6218 67.1979C36.1916 67.1979 33.1506 66.2927 30.4986 64.4824Z" fill="#FF4362"/>
<defs>
<linearGradient id="paint0_linear_1_1405" x1="-140" y1="-1.09798e-07" x2="-140" y2="80" gradientUnits="userSpaceOnUse">
<stop stop-color="#7BAAEB"/>
<stop offset="1" stop-color="#6C75E9"/>
</linearGradient>
<linearGradient id="paint1_linear_1_1405" x1="-140.25" y1="-0.25" x2="-140.25" y2="43.25" gradientUnits="userSpaceOnUse">
<stop stop-color="#95C2F0"/>
<stop offset="1" stop-color="#6B8EE9"/>
</linearGradient>
</defs>
</svg>
